# AST/ASF file generated using VICON BodyLanguage
# -----------------------------------------------
:version 1.10
:name VICON
:units
  mass 1.0
  length 0.45
  angle deg
:documentation
   .ast/.asf automatically generated from VICON data using
   VICON BodyBuilder and BodyLanguage model FoxedUp or BRILLIANT.MOD
:root
   order TX TY TZ RX RY RZ
   axis XYZ
   position 0 0 0  
   orientation 0 0 0 
:bonedata
  begin
     id 1 
     name lhipjoint
     direction 0.662698 -0.695252 0.27831 
     length 2.53073 
     axis 0 0 0  XYZ
  end
  begin
     id 2 
     name lfemur
     direction 0.34202 -0.939693 0  
     length 7.16147  
     axis 0 0 20  XYZ
    dof rx ry rz
    limits (-160.0 20.0)
           (-70.0 70.0)
           (-60.0 70.0)
  end
  begin
     id 3 
     name ltibia
     direction 0.34202 -0.939693 0   
     length 7.63967   
     axis 0 0 20   XYZ
    dof rx
    limits (-10.0 170.0)
  end
  begin
     id 4 
     name lfoot
     direction 0.0938457 -0.257721 0.961651   
     length 1.89793   
     axis -90 7.62852e-016 20   XYZ
    dof rx rz
    limits (-45.0 90.0)
           (-70.0 20.0)
  end
  begin
     id 5 
     name ltoes
     direction -0.00116841 -0.0030592 0.999995   
     length 0.955649   
     axis -90 7.62852e-016 20   XYZ
    dof rx
    limits (-90.0 20.0)
  end
  begin
     id 6 
     name rhipjoint
     direction -0.649445 -0.705948 0.282592   
     length 2.49238  
     axis 0 0 0  XYZ 
  end
  begin
     id 7 
     name rfemur
     direction -0.34202 -0.939693 0   
     length 6.90728   
     axis 0 0 -20   XYZ
    dof rx ry rz
    limits (-160.0 20.0)
           (-70.0 70.0)
           (-70.0 60.0)
  end
  begin
     id 8 
     name rtibia
     direction -0.34202 -0.939693 0   
     length 7.72868   
     axis 0 0 -20   XYZ
    dof rx
    limits (-10.0 170.0)
 end
 begin
     id 9 
     name rfoot
     direction -0.0920068 -0.252865 0.963117   
     length 1.97476  
     axis -90 -7.62852e-016 -20   XYZ
    dof rx rz
    limits (-45.0 90.0)
           (-20.0 70.0)
  end
  begin
     id 10 
     name rtoes
     direction 0.000391322 0.00230649 0.999997   
     length 0.992641   
     axis -90 -7.62852e-016 -20   XYZ
    dof rx
    limits (-90.0 20.0)
  end
  begin
     id 11 
     name lowerback
     direction -0.00875327 0.998321 -0.0572635   
     length 2.20024   
     axis 0 0 0   XYZ
    dof rx ry rz
    limits (-20.0 45.0)
           (-30.0 30.0)
           (-30.0 30.0)
  end
  begin
     id 12 
     name upperback
     direction 0.00753931 0.999972 -0.000360425   
     length 2.20538   
     axis 0 0 0   XYZ
    dof rx ry rz
    limits (-20.0 45.0)
           (-30.0 30.0)
           (-30.0 30.0)
  end
  begin
     id 13 
     name thorax
     direction 0.0117767 0.999601 0.0256663   
     length 2.21508   
     axis 0 0 0   XYZ
    dof rx ry rz
    limits (-20.0 45.0)
           (-30.0 30.0)
           (-30.0 30.0)
  end
  begin
     id 14 
     name lowerneck
     direction 0.060228 0.994909 0.0807986   
     length 1.7607   
     axis 0 0 0   XYZ
    dof rx ry rz
    limits (-20.0 45.0)
           (-30.0 30.0)
           (-30.0 30.0)
  end
  begin
     id 15 
     name upperneck
     direction -0.0563647 0.959594 -0.275685   
     length 1.75612   
     axis 0 0 0   XYZ
    dof rx ry rz
    limits (-20.0 45.0)
           (-30.0 30.0)
           (-30.0 30.0)
  end
  begin
     id 16
     name head
     direction -0.0161544 0.99458 -0.102714  
     length 1.79288  
     axis 0 0 0   XYZ
    dof rx ry rz
    limits (-20.0 45.0)
           (-30.0 30.0)
           (-30.0 30.0)
  end
  begin
     id 17 
     name lclavicle
     direction 0.93913 0.332189 -0.087669  
     length 3.52087  
     axis 0 0 0   XYZ
    dof ry rz
    limits (-20.0 10.0)
           (0.0 20.0)
  end
  begin
     id 18 
     name lhumerus
     direction 1 -4.48974e-011 -2.70836e-027   
     length 5.35289   
     axis -180 -30 -90   XYZ
    dof rx ry rz
    limits (-60.0 90.0)
           (-90.0 90.0)
           (-90.0 90.0)
  end
  begin
     id 19
     name lradius
     direction 1 -4.48961e-011 -9.76021e-027   
     length 3.27727   
     axis -180 -30 -90   XYZ
    dof rx
    limits (-10.0 170.0)
  end
  begin
     id 20
     name lwrist
     direction 1 -4.49103e-011 -2.23668e-026   
     length 1.63864   
     axis 1.44924e-014 90 90   XYZ
    dof ry
    limits (-180.0 0.0)
 end
  begin
     id 21 
     name lhand
     direction 1 3.0697e-005 0.000161777   
     length 0.54443   
     axis 2.85318e-014 90 90   XYZ
    dof rx rz
    limits (-90.0 90.0)
           (-45.0 45.0)
  end
  begin
     id 22 
     name lfingers
     direction 1 -4.49027e-011 -8.9447e-026   
     length 0.438912   
     axis 5.70628e-014 90 90   XYZ
    dof rx
    limits (0.0 90.0)
  end
  begin
     id 23
     name lthumb
     direction 0.707058 2.6516e-005 0.707156   
     length 0.630274   
     axis -90 45 -3.53137e-014   XYZ
    dof rx rz
    limits (-45.0 45.0)
           (-45.0 45.0)
  end
  begin
     id 24 
     name rclavicle
     direction -0.95274 0.284984 -0.105215   
     length 3.43401  
     axis 0 0 0   XYZ 
    dof ry rz
    limits (-10.0 20.0)
           (-20.0 0.0)
  end
  begin
     id 25 
     name rhumerus
     direction -0.999999 -0.000575019 -0.00106829  
     length 5.52077   
     axis -180 30 90   XYZ
    dof rx ry rz
    limits (-90.0 60.0)
           (-90.0 90.0)
           (-90.0 90.0)
  end
  begin
     id 26 
     name rradius
     direction -1 -4.4879e-011 -6.35415e-027   
     length 3.32364   
     axis -180 30 90   XYZ
    dof rx
    limits (-10.0 170.0)
  end
  begin
     id 27 
     name rwrist
     direction -1 -4.49048e-011 -9.98542e-027   
     length 1.66182   
     axis 6.32482e-015 -90 -90   XYZ
    dof ry
    limits (-180.0 0.0)
  end
  begin
     id 28
     name rhand
     direction -1 -4.48978e-011 -1.99771e-026   
     length 0.732235   
     axis 1.27479e-014 -90 -90   XYZ
    dof rx rz
    limits (-90.0 90.0)
           (-45.0 45.0)
  end
  begin
     id 29
     name rfingers
     direction -1 -4.49144e-011 -3.99245e-026   
     length 0.590347   
     axis 2.5496e-014 -90 -90   XYZ
    dof rx
    limits (0.0 90.0)
  end
  begin
     id 30
     name rthumb
     direction -0.707107 -6.35121e-011 0.707107   
     length 0.847624   
     axis -90 -45 -2.82974e-014   XYZ
    dof rx rz
    limits (-45.0 45.0)
           (-45.0 45.0)
  end
:hierarchy
  begin
    root lhipjoint rhipjoint lowerback
    lhipjoint lfemur
    lfemur ltibia
    ltibia lfoot
    lfoot ltoes
    rhipjoint rfemur
    rfemur rtibia
    rtibia rfoot
    rfoot rtoes
    lowerback upperback
    upperback thorax
    thorax lowerneck lclavicle rclavicle
    lowerneck upperneck
    upperneck head
    lclavicle lhumerus
    lhumerus lradius
    lradius lwrist
    lwrist lhand lthumb
    lhand lfingers
    rclavicle rhumerus
    rhumerus rradius
    rradius rwrist
    rwrist rhand rthumb
    rhand rfingers
  end

#!OML:ASF G:\Work\Work\Patient Classification 1\Elijah\terrain1\Elijah.ASF
:FULLY-SPECIFIED
:DEGREES
3280
root 16.8549 19.9084 -20.2468 716.757 58.5127 1.29163
lowerback 17.1956 1.72295 6.38872
upperback 3.62248 3.4978 -0.414831
thorax -5.32031 1.6826 -4.8074
lowerneck -16.0055 1.21467 5.19576
upperneck 32.2935 1.40098 -1.82176
head 13.6538 1.22242 -1.34816
rclavicle -4.84041e-014 1.66979e-014
rhumerus -38.6783 16.1428 -93.5903
rradius 53.6023
rwrist -8.83568
rhand -13.2237 20.3189
rfingers 7.12502
rthumb 12.8775 -9.26382
lclavicle -4.84041e-014 1.66979e-014
lhumerus -46.2788 14.3187 81.3055
lradius 22.636
lwrist -2.64667
lhand -9.9161 25.1315
lfingers 7.12502
lthumb 16.0644 54.4856
rfemur -0.822509 1.57785 25.1645
rtibia 28.4736
rfoot -14.5615 4.70705
rtoes -7.37682
lfemur -59.2394 8.68115 -22.5363
ltibia 101.424
lfoot -6.77577 -16.3929
ltoes -2.52581
3281
root 16.9249 19.9146 -20.1879 715.842 57.7625 0.0397787
lowerback 16.8756 2.03272 5.56556
upperback 3.72335 3.80481 0.657322
thorax -5.13613 1.85595 -3.24003
lowerneck -15.7892 1.24487 4.6862
upperneck 32.3355 1.83665 -2.43981
head 13.6399 1.26911 -1.43566
rclavicle -5.17834e-014 3.10104e-014
rhumerus -38.6285 17.1312 -92.5005
rradius 53.8208
rwrist -9.62544
rhand -11.9244 20.1983
rfingers 7.12502
rthumb 14.1298 -9.30129
lclavicle -5.17834e-014 3.10104e-014
lhumerus -46.2067 15.6404 81.7787
lradius 22.6183
lwrist -4.16962
lhand -9.60793 25.125
lfingers 7.12502
lthumb 16.3612 54.4549
rfemur -0.385749 2.32742 26.0369
rtibia 27.9406
rfoot -14.0647 4.8197
rtoes -6.72688
lfemur -59.819 9.08075 -21.4206
ltibia 99.793
lfoot -6.83082 -17.1913
ltoes -1.52091
3282
root 17.001 19.9289 -20.1633 715.81 57.4022 0.0385362
lowerback 17.0495 1.98037 6.23951
upperback 3.74257 3.82927 0.103371
thorax -5.11978 1.85979 -4.22154
lowerneck -15.6205 1.27767 5.29771
upperneck 32.3253 1.6647 -2.3175
head 13.5988 1.28726 -1.52167
rclavicle 6.12257e-014 -1.98785e-014
rhumerus -38.4015 16.6105 -93.1276
rradius 53.6417
rwrist -8.91654
rhand -12.9537 19.813
rfingers 7.12502
rthumb 13.1378 -9.75311
lclavicle 6.12257e-014 -1.98785e-014
lhumerus -45.7166 14.6859 81.1446
lradius 22.6697
lwrist -4.40675
lhand -9.02604 24.57
lfingers 7.12502
lthumb 16.9214 53.8528
rfemur 0.1227 1.88282 25.7601
rtibia 27.4117
rfoot -13.3448 6.06987
rtoes -3.52243
lfemur -60.0144 8.73284 -21.2221
ltibia 97.8839
lfoot -6.97951 -17.449
ltoes -0.998056
3283
root 17.0728 19.9362 -20.1508 715.773 57.0942 -0.0208774
lowerback 17.3213 1.90844 6.28966
upperback 3.77439 3.77227 0.237812
thorax -5.2446 1.82791 -4.11023
lowerneck -15.8036 1.33481 4.72971
upperneck 32.5253 1.88878 -2.22002
head 13.7276 1.32943 -1.34855
rclavicle -2.77305e-014 -3.49861e-014
rhumerus -38.2471 16.5174 -92.7173
rradius 53.8544
rwrist -8.98129
rhand -12.252 19.2301
rfingers 7.12502
rthumb 13.8142 -10.2912
lclavicle -2.77305e-014 -3.49861e-014
lhumerus -45.3486 15.0348 81.223
lradius 22.7325
lwrist -5.02829
lhand -8.45254 24.0523
lfingers 7.12502
lthumb 17.4734 53.2869
rfemur 0.485298 0.741598 25.2936
rtibia 26.8884
rfoot -12.6728 7.9097
rtoes -0.441248
lfemur -60.3016 8.28461 -21.0861
ltibia 95.9546
lfoot -7.55583 -17.2822
ltoes -2.72782
3284
root 17.1437 19.9593 -20.1161 715.589 56.5467 -0.436283
lowerback 17.168 1.97322 6.08585
upperback 3.97544 3.83431 0.667873
thorax -4.98576 1.87831 -3.53415
lowerneck -16.307 1.37944 4.03945
upperneck 32.7868 2.17777 -2.29572
head 13.9566 1.35541 -1.21111
rclavicle -1.98785e-015 2.62396e-014
rhumerus -37.7972 16.6629 -92.0541
rradius 53.7791
rwrist -10.0925
rhand -10.4527 20.4224
rfingers 7.12502
rthumb 15.5477 -8.97258
lclavicle -1.98785e-015 2.62396e-014
lhumerus -44.7535 15.4355 81.7519
lradius 22.9409
lwrist -5.61732
lhand -7.97863 24.2285
lfingers 7.12502
lthumb 17.9294 53.422
rfemur 0.816954 1.26036 25.5624
rtibia 26.4077
rfoot -12.4427 7.87765
rtoes -1.48809
lfemur -60.5057 8.34089 -20.5502
ltibia 93.9351
lfoot -8.05091 -17.5758
ltoes -3.73321
3285
root 17.2129 19.9911 -20.0835 715.676 56.0234 -0.575021
lowerback 16.967 1.97468 6.23072
upperback 4.17014 3.83561 0.570376
thorax -4.65224 1.89628 -3.70046
lowerneck -16.5079 1.49899 4.28237
upperneck 32.8155 2.30548 -2.42996
head 14.0255 1.41725 -1.28644
rclavicle 1.68967e-014 -1.66979e-014
rhumerus -37.446 16.9658 -92.4786
rradius 53.6484
rwrist -8.85861
rhand -14.595 19.5166
rfingers 7.12502
rthumb 11.5554 -10.1448
lclavicle 1.68967e-014 -1.66979e-014
lhumerus -43.9809 14.8454 81.9206
lradius 23.1817
lwrist -5.80521
lhand -7.8635 24.7638
lfingers 7.12502
lthumb 18.0402 53.9472
rfemur 1.10897 1.73369 25.7102
rtibia 25.9405
rfoot -12.414 7.50794
rtoes -4.07192
lfemur -60.5794 8.25974 -20.1138
ltibia 91.8111
lfoot -8.23629 -18.0526
ltoes -3.56129
3286
root 17.2798 20.0159 -20.063 715.613 55.5784 -0.77313
lowerback 17.3078 2.01796 6.31224
upperback 4.06062 3.93846 0.643959
thorax -4.94092 1.93097 -3.71192
lowerneck -16.1763 1.53335 4.33923
upperneck 32.771 2.391 -2.52444
head 13.938 1.45237 -1.32114
rclavicle -9.59136e-014 2.78299e-014
rhumerus -37.3197 15.7262 -91.7592
rradius 53.9279
rwrist -10.1766
rhand -10.0438 20.5132
rfingers 7.12502
rthumb 15.9414 -8.85079
lclavicle -9.59136e-014 2.78299e-014
lhumerus -43.6992 14.0037 82.4599
lradius 23.4152
lwrist -5.95193
lhand -8.66984 25.4434
lfingers 7.12502
lthumb 17.2642 54.6965
rfemur 1.5001 2.08854 25.835
rtibia 25.3855
rfoot -12.1342 7.23534
rtoes -4.30666
lfemur -60.5309 7.91466 -19.7276
ltibia 89.6373
lfoot -8.61821 -18.1632
ltoes -4.74165
3287
root 17.3596 20.0294 -20.0622 715.71 55.2054 -0.90893
lowerback 17.2915 1.9356 6.70561
upperback 4.13073 3.89357 0.600161
thorax -4.83053 1.91197 -3.96673
lowerneck -16.1776 1.61887 4.35409
upperneck 32.6979 2.51379 -2.55592
head 13.9126 1.49929 -1.31609
rclavicle -3.81667e-014 -1.27222e-014
rhumerus -37.2336 15.8223 -91.7852
rradius 54.0771
rwrist -9.35974
rhand -12.5035 19.6043
rfingers 7.12502
rthumb 13.5717 -9.93332
lclavicle -3.81667e-014 -1.27222e-014
lhumerus -43.1526 14.5507 81.8291
lradius 23.2128
lwrist -7.44226
lhand -7.53308 24.3347
lfingers 7.12502
lthumb 18.3581 53.4885
rfemur 1.69721 1.50827 25.5118
rtibia 24.9001
rfoot -11.3612 8.41187
rtoes -1.68634
lfemur -60.5324 7.41154 -19.6095
ltibia 87.4029
lfoot -9.12573 -18.4929
ltoes -7.67925
3288
root 17.4366 20.0416 -20.0275 715.819 54.6907 -1.17791
lowerback 16.9772 1.948 7.01479
upperback 4.2491 3.92484 0.464068
thorax -4.49919 1.94222 -4.26753
lowerneck -16.4454 1.7609 4.4735
upperneck 32.7938 2.65018 -2.50324
head 14.0229 1.57551 -1.29271
rclavicle -2.6339e-014 -1.35174e-014
rhumerus -36.7572 15.7648 -91.8405
rradius 54.037
rwrist -8.99656
rhand -13.7869 19.153
rfingers 7.12502
rthumb 12.3346 -10.4632
lclavicle -2.6339e-014 -1.35174e-014
lhumerus -42.4414 14.6223 81.2231
lradius 23.1408
lwrist -8.14201
lhand -6.89491 23.7843
lfingers 7.12502
lthumb 18.9719 52.8791
rfemur 1.84352 0.603886 25.286
rtibia 24.3394
rfoot -10.4935 10.0198
rtoes 1.03917
lfemur -60.596 7.17497 -18.9162
ltibia 85.4337
lfoot -8.24247 -19.6841
ltoes -5.7339
3289
root 17.506 20.0483 -20.0042 715.599 54.3342 -1.15706
lowerback 17.8018 1.82065 7.55217
upperback 4.22683 3.90254 0.101154
thorax -4.90031 1.90939 -5.00427
lowerneck -16.396 1.86688 4.68641
upperneck 32.8555 2.68872 -2.34415
head 14.0435 1.6413 -1.25987
rclavicle -1.29508e-013 3.97569e-015
rhumerus -36.5088 14.7695 -91.8625
rradius 53.9682
rwrist -7.55842
rhand -13.3695 19.119
rfingers 7.12502
rthumb 12.737 -10.4725
lclavicle -1.29508e-013 3.97569e-015
lhumerus -42.0541 12.955 81.3118
lradius 23.5909
lwrist -7.32474
lhand -7.07507 24.1845
lfingers 7.12502
lthumb 18.7986 53.2961
rfemur 2.62317 1.1466 25.3
rtibia 23.8507
rfoot -10.2998 9.57441
rtoes 0.294311
lfemur -59.9322 7.00838 -18.8876
ltibia 83.2095
lfoot -9.00554 -20.031
ltoes -11.5202
3290
root 17.5788 20.086 -19.978 715.755 53.9216 -1.24525
lowerback 17.8795 1.94522 7.18402
upperback 4.16327 4.03174 0.499375
thorax -5.05121 1.9663 -4.40411
lowerneck -16.0968 1.85898 4.23115
upperneck 32.7468 2.89611 -2.51182
head 13.9312 1.65381 -1.21473
rclavicle -5.96354e-015 1.82882e-014
rhumerus -36.4204 14.0655 -90.6267
rradius 54.0806
rwrist -5.78936
rhand -11.0284 19.7491
rfingers 7.12502
rthumb 14.9932 -9.68811
lclavicle -5.96354e-015 1.82882e-014
lhumerus -41.9097 12.1507 82.1008
lradius 24.0298
lwrist -6.59318
lhand -7.1903 24.3925
lfingers 7.12502
lthumb 18.6878 53.5148
rfemur 2.85854 1.46374 25.2756
rtibia 23.3212
rfoot -9.9621 9.65985
rtoes 0.153038
lfemur -59.5499 6.3753 -17.9175
ltibia 81.3689
lfoot -6.66517 -21.3495
ltoes -0.0743624
3291
root 17.6445 20.1117 -19.9588 716.17 53.4153 -0.919673
lowerback 18.019 1.99503 7.24367
upperback 4.26054 4.10085 0.262887
thorax -4.98899 2.00549 -4.70913
lowerneck -16.3775 1.82008 4.24464
upperneck 32.8345 2.75834 -2.34593
head 14.024 1.6138 -1.17241
rclavicle -8.54774e-015 7.95139e-015
rhumerus -35.9606 13.1517 -90.2358
rradius 54.1923
rwrist -5.32649
rhand -8.95852 20.1427
rfingers 7.12502
rthumb 16.9864 -9.13461
lclavicle -8.54774e-015 7.95139e-015
lhumerus -41.2463 11.4567 81.8835
lradius 24.2136
lwrist -6.43243
lhand -7.44938 24.5074
lfingers 7.12502
lthumb 18.4386 53.6536
rfemur 3.13562 1.12515 24.7637
rtibia 22.7434
rfoot -9.40792 10.6732
rtoes 1.48021
lfemur -59.0848 5.84658 -17.5767
ltibia 79.495
lfoot -6.36804 -21.4091
ltoes 1.94467
3292
root 17.7296 20.1335 -19.9155 716.794 52.9282 -1.08801
lowerback 17.0628 2.24599 6.4109
upperback 4.32934 4.24192 0.954456
thorax -4.50753 2.1019 -3.47081
lowerneck -17.2325 1.54659 3.52539
upperneck 33.451 2.72581 -2.75589
head 14.4841 1.45006 -1.21756
rclavicle 6.69904e-014 -3.65764e-014
rhumerus -35.8341 14.1286 -89.2307
rradius 54.6272
rwrist -6.07607
rhand -9.07572 19.7211
rfingers 7.12502
rthumb 16.8735 -9.5658
lclavicle 6.69904e-014 -3.65764e-014
lhumerus -40.7764 12.0759 82.4802
lradius 24.328
lwrist -6.62619
lhand -7.72039 24.2925
lfingers 7.12502
lthumb 18.1779 53.4631
rfemur 2.99489 1.98223 24.9506
rtibia 22.1691
rfoot -9.10902 10.2471
rtoes 2.31207
lfemur -59.3158 5.54831 -17.1408
ltibia 77.8813
lfoot -6.80882 -21.39
ltoes -2.17691
